<svg width="300" height="300" viewBox="0 0 300 300" fill="none" xmlns="http://www.w3.org/2000/svg">
<path d="M275.005 151.247C275.005 175.971 267.674 200.14 253.938 220.697C240.202 241.254 220.679 257.276 197.837 266.737C174.996 276.199 149.861 278.674 125.613 273.851C101.364 269.027 79.0902 257.122 61.6079 239.64C44.1256 222.157 32.22 199.883 27.3966 175.635C22.5733 151.386 25.0488 126.252 34.5101 103.41C43.9715 80.5683 59.9937 61.0451 80.5507 47.3094C101.108 33.5736 125.276 26.2422 150 26.2422C166.416 26.2422 182.671 29.4755 197.837 35.7576C213.004 42.0398 226.784 51.2476 238.392 62.8554C250 74.4632 259.208 88.2437 265.49 103.41C271.772 118.576 275.005 134.832 275.005 151.247ZM220.247 81.8843C215.874 77.5106 201.126 85.1685 196.753 89.5422L169.8 116.511L169.563 116.432L94.2157 95.9527C92.5688 95.603 90.8626 95.6466 89.2357 96.0801C87.6089 96.5135 86.1071 97.3246 84.8526 98.4474L78.0947 105.205C77.5864 105.643 77.1964 106.201 76.9604 106.828C76.7245 107.456 76.6503 108.132 76.7447 108.796C76.839 109.46 77.0989 110.089 77.5004 110.626C77.9019 111.163 78.4321 111.59 79.0421 111.869L129.158 139.579L137.953 148.374L114.71 171.584C112.337 174.246 110.339 177.221 108.774 180.426L91.7368 175.263C90.1109 174.869 88.4135 174.876 86.7907 175.283C85.1679 175.69 83.6683 176.485 82.421 177.6L80.3368 179.669C79.2858 180.72 78.6954 182.145 78.6954 183.632C78.6954 185.118 79.2858 186.544 80.3368 187.595L92.5894 199.847L92.8263 200.068L102.095 209.353L102.332 209.59L114.568 221.842C115.622 222.889 117.046 223.477 118.532 223.477C120.017 223.477 121.441 222.889 122.495 221.842L124.579 219.758C125.695 218.511 126.491 217.012 126.898 215.389C127.305 213.766 127.311 212.068 126.916 210.442L121.737 193.39C124.941 191.817 127.916 189.814 130.579 187.437L153.789 164.211L162.584 172.99L190.263 223.105C190.541 223.715 190.969 224.245 191.505 224.647C192.042 225.048 192.672 225.308 193.335 225.403C193.999 225.497 194.676 225.423 195.303 225.187C195.931 224.951 196.489 224.561 196.926 224.053L203.684 217.295C204.809 216.039 205.622 214.534 206.055 212.904C206.489 211.274 206.531 209.565 206.179 207.916L185.716 132.6L185.637 132.347L212.589 105.379C216.963 101.005 224.621 86.2738 220.247 81.8843Z" fill="#1D1D1D"/>
</svg>
