<svg width="103" height="17" viewBox="0 0 103 17" fill="none" xmlns="http://www.w3.org/2000/svg">
<g clip-path="url(#clip0_91_468)">
<path d="M12.1159 9.65106L12.1157 9.65127L12.5656 11.1286L11.5801 11.2979L11.5802 11.2985L12.221 15.0279L8.86191 13.2656L8.8616 13.2654C8.31999 12.9815 7.67304 12.9815 7.13142 13.2654L7.13112 13.2656L3.77203 15.0279L4.41287 11.2985C4.4129 11.2983 4.41293 11.2981 4.41297 11.2979C4.51695 10.6937 4.31568 10.0779 3.87737 9.65127L3.87715 9.65106L1.16388 7.01172L4.91541 6.46768C4.91549 6.46767 4.91557 6.46766 4.91565 6.46764C5.52103 6.37993 6.04545 6.00041 6.31703 5.45121C6.31704 5.45119 6.31705 5.45117 6.31706 5.45115L7.99651 2.05507L9.67597 5.45115C9.94753 6.00038 10.472 6.37992 11.0774 6.46764C11.0775 6.46766 11.0775 6.46767 11.0776 6.46768L14.8291 7.01172L12.1159 9.65106ZM12.2689 15.3069C12.2689 15.3069 12.2689 15.3068 12.2689 15.3068L12.2689 15.3069Z" fill="#F5BD00" stroke="#F5BD00" stroke-width="2"/>
</g>
<g clip-path="url(#clip1_91_468)">
<path d="M33.7127 9.65106L33.7125 9.65127L34.1624 11.1286L33.1769 11.2979L33.177 11.2985L33.8178 15.0279L30.4587 13.2656L30.4584 13.2654C29.9168 12.9815 29.2698 12.9815 28.7282 13.2654L28.7279 13.2656L25.3688 15.0279L26.0097 11.2985C26.0097 11.2983 26.0097 11.2981 26.0098 11.2979C26.1138 10.6937 25.9125 10.0779 25.4742 9.65127L25.474 9.65106L22.7607 7.01172L26.5122 6.46768C26.5123 6.46767 26.5124 6.46766 26.5125 6.46764C27.1178 6.37993 27.6423 6.00041 27.9138 5.45121C27.9138 5.45119 27.9139 5.45117 27.9139 5.45115L29.5933 2.05507L31.2728 5.45115C31.5443 6.00038 32.0688 6.37992 32.6742 6.46764C32.6743 6.46766 32.6743 6.46767 32.6744 6.46768L36.4259 7.01172L33.7127 9.65106ZM33.8657 15.3069C33.8657 15.3069 33.8657 15.3068 33.8657 15.3068L33.8657 15.3069Z" fill="#F5BD00" stroke="#F5BD00" stroke-width="2"/>
</g>
<g clip-path="url(#clip2_91_468)">
<path d="M55.3095 9.65106L55.3093 9.65127L55.7592 11.1286L54.7737 11.2979L54.7738 11.2985L55.4146 15.0279L52.0555 13.2656L52.0552 13.2654C51.5136 12.9815 50.8666 12.9815 50.325 13.2654L50.3247 13.2656L46.9656 15.0279L47.6065 11.2985C47.6065 11.2983 47.6065 11.2981 47.6066 11.2979C47.7106 10.6937 47.5093 10.0779 47.071 9.65127L47.0708 9.65106L44.3575 7.01172L48.109 6.46768C48.1091 6.46767 48.1092 6.46766 48.1093 6.46764C48.7146 6.37993 49.2391 6.00041 49.5106 5.45121C49.5106 5.45119 49.5107 5.45117 49.5107 5.45115L51.1901 2.05507L52.8696 5.45115C53.1411 6.00038 53.6656 6.37992 54.271 6.46764C54.2711 6.46766 54.2711 6.46767 54.2712 6.46768L58.0227 7.01172L55.3095 9.65106ZM55.4625 15.3069C55.4625 15.3069 55.4625 15.3068 55.4625 15.3068L55.4625 15.3069Z" fill="#F5BD00" stroke="#F5BD00" stroke-width="2"/>
</g>
<g clip-path="url(#clip3_91_468)">
<path d="M76.9062 9.65106L76.9059 9.65127L77.3559 11.1286L76.3703 11.2979L76.3704 11.2985L77.0113 15.0279L73.6522 13.2656L73.6519 13.2654C73.1103 12.9815 72.4633 12.9815 71.9217 13.2654L71.9214 13.2656L68.5623 15.0279L69.2032 11.2985C69.2032 11.2983 69.2032 11.2981 69.2032 11.2979C69.3072 10.6937 69.106 10.0779 68.6677 9.65127L68.6674 9.65106L65.9542 7.01172L69.7057 6.46768C69.7058 6.46767 69.7059 6.46766 69.7059 6.46764C70.3113 6.37993 70.8357 6.00041 71.1073 5.45121C71.1073 5.45119 71.1073 5.45117 71.1073 5.45115L72.7868 2.05507L74.4663 5.45115C74.7378 6.00038 75.2623 6.37992 75.8677 6.46764C75.8677 6.46766 75.8678 6.46767 75.8679 6.46768L79.6194 7.01172L76.9062 9.65106ZM77.0592 15.3069C77.0592 15.3069 77.0592 15.3068 77.0592 15.3068L77.0592 15.3069Z" fill="#F5BD00" stroke="#F5BD00" stroke-width="2"/>
</g>
<g clip-path="url(#clip4_91_468)">
<path d="M98.5028 9.65106L98.5026 9.65127L98.9526 11.1286L97.967 11.2979L97.9671 11.2985L98.608 15.0279L95.2489 13.2656L95.2486 13.2654C94.7069 12.9815 94.06 12.9815 93.5184 13.2654L93.5181 13.2656L90.159 15.0279L90.7998 11.2985C90.7999 11.2983 90.7999 11.2981 90.7999 11.2979C90.9039 10.6937 90.7026 10.0779 90.2643 9.65127L90.2641 9.65106L87.5508 7.01172L91.3024 6.46768C91.3025 6.46767 91.3025 6.46766 91.3026 6.46764C91.908 6.37993 92.4324 6.00041 92.704 5.45121C92.704 5.45119 92.704 5.45117 92.704 5.45115L94.3835 2.05507L96.0629 5.45115C96.3345 6.00038 96.8589 6.37992 97.4643 6.46764C97.4644 6.46766 97.4645 6.46767 97.4646 6.46768L101.216 7.01172L98.5028 9.65106ZM98.6559 15.3069C98.6559 15.3069 98.6559 15.3068 98.6559 15.3068L98.6559 15.3069Z" fill="#F5BD00" stroke="#F5BD00" stroke-width="2"/>
</g>
<defs>
<clipPath id="clip0_91_468">
<rect width="15.9926" height="15.96" fill="white" transform="translate(0 0.532715)"/>
</clipPath>
<clipPath id="clip1_91_468">
<rect width="15.9926" height="15.96" fill="white" transform="translate(21.5968 0.532715)"/>
</clipPath>
<clipPath id="clip2_91_468">
<rect width="15.9926" height="15.96" fill="white" transform="translate(43.1936 0.532715)"/>
</clipPath>
<clipPath id="clip3_91_468">
<rect width="15.9926" height="15.96" fill="white" transform="translate(64.7903 0.532715)"/>
</clipPath>
<clipPath id="clip4_91_468">
<rect width="15.9926" height="15.96" fill="white" transform="translate(86.387 0.532715)"/>
</clipPath>
</defs>
</svg>
